<?xml version="1.0" encoding="UTF-8"?>
<svg xmlns="http://www.w3.org/2000/svg" xmlns:xlink="http://www.w3.org/1999/xlink" width="822pt" height="337pt" viewBox="0 0 822 337">
<defs>
<clipPath id="clip-0">
<path clip-rule="nonzero" d="M 0 0 L 821.761719 0 L 821.761719 336.960938 L 0 336.960938 Z M 0 0 "/>
</clipPath>
</defs>
<g clip-path="url(#clip-0)">

</g>
<rect x="-82.2" y="-33.7" width="986.4" height="404.4" fill="rgb(100%, 100%, 100%)" fill-opacity="1"/>
<path fill-rule="nonzero" fill="rgb(12.745667%, 36.39679%, 47.761536%)" fill-opacity="1" d="M 461.640625 176.140625 C 461.867188 172.722656 462.359375 169.546875 463.097656 166.605469 C 463.839844 163.671875 464.933594 161.027344 466.371094 158.667969 C 467.804688 156.300781 469.691406 154.277344 472.035156 152.613281 C 474.375 150.941406 477.253906 149.644531 480.675781 148.746094 C 484.089844 147.835938 488.191406 147.382812 492.976562 147.382812 L 495.335938 147.382812 C 498.785156 147.382812 501.773438 147.609375 504.308594 148.058594 C 506.847656 148.507812 509.046875 149.082031 510.90625 149.761719 C 512.773438 150.457031 514.347656 151.1875 515.636719 151.96875 C 516.929688 152.75 518.042969 153.488281 518.972656 154.171875 C 519.914062 154.863281 520.699219 155.429688 521.375 155.886719 C 522.042969 156.335938 522.691406 156.558594 523.308594 156.558594 C 524.554688 156.558594 525.628906 156.113281 526.550781 155.226562 C 527.449219 154.351562 527.90625 153.28125 527.90625 152.039062 C 527.90625 150.375 527.164062 148.671875 525.683594 146.957031 C 524.191406 145.230469 522.097656 143.667969 519.371094 142.257812 C 516.640625 140.851562 513.367188 139.695312 509.542969 138.8125 C 505.710938 137.933594 501.484375 137.488281 496.847656 137.488281 L 493.613281 137.488281 C 487.019531 137.488281 481.359375 138.117188 476.625 139.351562 C 471.898438 140.597656 467.914062 142.355469 464.675781 144.625 C 461.449219 146.902344 458.882812 149.601562 456.976562 152.734375 C 455.050781 155.859375 453.574219 159.3125 452.558594 163.097656 C 451.53125 166.878906 450.863281 170.898438 450.550781 175.152344 C 450.246094 179.40625 450.082031 183.808594 450.082031 188.351562 L 450.082031 188.847656 C 450.082031 193.394531 450.246094 197.785156 450.550781 202.046875 C 450.863281 206.300781 451.53125 210.316406 452.558594 214.097656 C 453.574219 217.878906 455.050781 221.335938 456.976562 224.464844 C 458.882812 227.597656 461.449219 230.285156 464.675781 232.539062 C 467.914062 234.785156 471.898438 236.527344 476.625 237.769531 C 481.359375 239.015625 487.019531 239.632812 493.613281 239.632812 L 496.847656 239.632812 C 501.484375 239.632812 505.710938 239.191406 509.542969 238.308594 C 513.367188 237.421875 516.640625 236.289062 519.371094 234.910156 C 522.097656 233.519531 524.191406 231.957031 525.683594 230.207031 C 527.164062 228.457031 527.90625 226.753906 527.90625 225.085938 C 527.90625 223.839844 527.449219 222.785156 526.550781 221.894531 C 525.628906 221.011719 524.554688 220.574219 523.308594 220.574219 C 522.691406 220.574219 522.042969 220.792969 521.375 221.246094 C 520.699219 221.695312 519.914062 222.265625 518.972656 222.945312 C 518.042969 223.636719 516.929688 224.378906 515.636719 225.152344 C 514.347656 225.941406 512.773438 226.675781 510.90625 227.359375 C 509.046875 228.046875 506.847656 228.621094 504.308594 229.070312 C 501.773438 229.515625 498.785156 229.75 495.335938 229.75 L 492.976562 229.75 C 488.191406 229.75 484.089844 229.292969 480.675781 228.386719 C 477.253906 227.476562 474.375 226.183594 472.035156 224.515625 C 469.691406 222.847656 467.804688 220.839844 466.371094 218.5 C 464.933594 216.160156 463.839844 213.519531 463.097656 210.585938 C 462.359375 207.65625 461.867188 204.472656 461.640625 201.0625 C 461.402344 197.644531 461.277344 194.054688 461.277344 190.277344 L 461.277344 186.914062 C 461.277344 183.144531 461.402344 179.554688 461.640625 176.140625 "/>
<path fill-rule="nonzero" fill="rgb(12.745667%, 36.39679%, 47.761536%)" fill-opacity="1" d="M 691.578125 197.558594 C 694.726562 196.554688 697.601562 195.238281 700.179688 193.613281 C 702.761719 191.992188 704.960938 190.054688 706.785156 187.8125 C 708.601562 185.558594 709.988281 182.949219 710.976562 179.960938 C 711.960938 176.972656 712.449219 173.617188 712.449219 169.890625 L 712.449219 169.101562 C 712.449219 163.371094 711.296875 158.515625 709.003906 154.542969 C 706.714844 150.585938 703.5625 147.382812 699.566406 144.941406 C 695.578125 142.511719 690.882812 140.773438 685.480469 139.753906 C 680.074219 138.714844 674.289062 138.277344 668.117188 138.421875 L 643.230469 138.421875 C 640.9375 138.421875 639.207031 138.890625 638.035156 139.816406 C 636.859375 140.753906 636.277344 141.859375 636.277344 143.148438 L 636.277344 236.476562 C 636.277344 237.769531 636.839844 238.609375 637.953125 238.988281 C 639.085938 239.367188 640.382812 239.566406 641.875 239.566406 C 642.589844 239.566406 643.28125 239.535156 643.960938 239.457031 C 644.617188 239.382812 645.210938 239.230469 645.75 238.988281 C 646.269531 238.753906 646.683594 238.441406 647 238.058594 C 647.300781 237.675781 647.46875 237.148438 647.46875 236.476562 L 647.46875 148.246094 L 669.117188 148.246094 C 674.914062 148.246094 679.847656 148.699219 683.9375 149.605469 C 688.019531 150.511719 691.34375 151.832031 693.910156 153.585938 C 696.460938 155.324219 698.332031 157.453125 699.5 159.964844 C 700.671875 162.464844 701.261719 165.332031 701.261719 168.527344 L 701.261719 170.464844 C 701.261719 174.144531 700.515625 177.257812 699.03125 179.816406 C 697.546875 182.371094 695.4375 184.460938 692.683594 186.089844 C 689.933594 187.710938 686.582031 188.898438 682.609375 189.644531 C 678.636719 190.375 674.144531 190.75 669.117188 190.75 L 655.839844 190.75 C 654.59375 190.75 653.640625 191.171875 652.960938 192.007812 C 652.296875 192.839844 651.96875 194.046875 651.96875 195.621094 C 651.96875 197.15625 652.289062 198.355469 652.933594 199.246094 C 653.574219 200.128906 654.523438 200.574219 655.765625 200.574219 L 668.976562 200.574219 C 670.992188 200.574219 672.910156 200.535156 674.757812 200.464844 C 676.59375 200.390625 678.429688 200.234375 680.246094 199.996094 L 700.894531 237.054688 C 701.414062 238.015625 702.183594 238.679688 703.167969 239.058594 C 704.140625 239.445312 705.136719 239.632812 706.132812 239.632812 C 706.902344 239.632812 707.773438 239.578125 708.753906 239.457031 C 709.738281 239.335938 710.609375 239.097656 711.363281 238.742188 C 712.140625 238.382812 712.675781 237.894531 712.988281 237.269531 C 713.296875 236.648438 713.171875 235.835938 712.582031 234.835938 Z M 691.578125 197.558594 "/>
<path fill-rule="nonzero" fill="rgb(12.745667%, 36.39679%, 47.761536%)" fill-opacity="1" d="M 593.535156 147.59375 C 592.757812 145.492188 591.941406 143.796875 591.066406 142.507812 C 590.171875 141.214844 589.191406 140.210938 588.125 139.496094 C 587.042969 138.78125 585.875 138.289062 584.640625 138.023438 C 583.398438 137.765625 582.058594 137.632812 580.628906 137.632812 L 577.753906 137.632812 C 576.273438 137.632812 574.898438 137.765625 573.660156 138.023438 C 572.417969 138.289062 571.261719 138.78125 570.191406 139.496094 C 569.109375 140.210938 568.128906 141.214844 567.25 142.507812 C 566.359375 143.796875 565.539062 145.492188 564.765625 147.59375 L 533.859375 232.035156 C 533.375 233.429688 533.136719 234.597656 533.136719 235.550781 C 533.136719 236.5 533.324219 237.273438 533.6875 237.847656 C 534.042969 238.410156 534.546875 238.832031 535.191406 239.097656 C 535.832031 239.359375 536.507812 239.492188 537.230469 239.492188 C 538.039062 239.492188 538.824219 239.464844 539.5625 239.417969 C 540.300781 239.371094 540.996094 239.191406 541.636719 238.882812 C 542.289062 238.570312 542.894531 238.0625 543.472656 237.34375 C 544.042969 236.625 544.546875 235.621094 544.96875 234.328125 L 551.347656 216.570312 L 596.289062 216.570312 C 597.535156 216.570312 598.480469 216.132812 599.128906 215.246094 C 599.769531 214.363281 600.089844 213.15625 600.089844 211.628906 C 600.089844 210.042969 599.757812 208.84375 599.09375 208.003906 C 598.417969 207.167969 597.464844 206.746094 596.21875 206.746094 L 554.886719 206.746094 L 574.957031 151.179688 C 575.484375 149.746094 576.003906 148.726562 576.535156 148.132812 C 577.066406 147.539062 577.707031 147.214844 578.476562 147.164062 L 579.90625 147.164062 C 580.628906 147.214844 581.246094 147.539062 581.773438 148.132812 C 582.289062 148.726562 582.820312 149.746094 583.347656 151.179688 L 613.320312 234.328125 C 613.757812 235.621094 614.257812 236.625 614.839844 237.34375 C 615.410156 238.0625 616.015625 238.570312 616.652344 238.882812 C 617.3125 239.191406 618 239.371094 618.738281 239.417969 C 619.480469 239.464844 620.261719 239.492188 621.066406 239.492188 C 621.792969 239.492188 622.460938 239.359375 623.085938 239.097656 C 623.710938 238.832031 624.195312 238.410156 624.558594 237.847656 C 624.910156 237.273438 625.105469 236.5 625.121094 235.550781 C 625.152344 234.597656 624.921875 233.429688 624.449219 232.035156 Z M 593.535156 147.59375 "/>
<path fill-rule="nonzero" fill="rgb(12.745667%, 36.39679%, 47.761536%)" fill-opacity="1" d="M 729.316406 176.957031 C 729.742188 177.445312 730.308594 177.859375 730.996094 178.191406 C 731.679688 178.511719 732.550781 178.6875 733.582031 178.6875 C 735.34375 178.6875 736.71875 178.261719 737.707031 177.410156 C 738.699219 176.550781 739.21875 175.585938 739.269531 174.488281 C 739.269531 174.324219 739.289062 173.964844 739.316406 173.414062 C 739.335938 172.867188 739.277344 154.035156 739.277344 154.035156 L 739.277344 148.242188 L 792.125 148.242188 C 792.84375 148.242188 793.605469 148.214844 794.417969 148.164062 C 795.230469 148.121094 795.984375 147.949219 796.6875 147.671875 C 797.375 147.382812 797.953125 146.917969 798.410156 146.269531 C 798.851562 145.625 799.089844 144.6875 799.089844 143.4375 C 799.089844 142.050781 798.742188 140.894531 798.074219 139.960938 C 797.410156 139.03125 796.597656 138.546875 795.648438 138.496094 C 795.492188 138.496094 795.007812 138.484375 794.167969 138.460938 C 793.332031 138.429688 791.992188 138.421875 790.15625 138.421875 L 735.105469 138.421875 C 732.808594 138.421875 731.070312 138.886719 729.875 139.820312 C 728.679688 140.753906 728.074219 141.882812 728.074219 143.222656 L 728.074219 173.753906 C 728.074219 174.246094 728.160156 174.777344 728.371094 175.34375 C 728.542969 175.933594 728.867188 176.464844 729.316406 176.957031 "/>
<path fill-rule="nonzero" fill="rgb(12.745667%, 36.39679%, 47.761536%)" fill-opacity="1" d="M 796.6875 229.53125 C 795.984375 229.242188 795.230469 229.074219 794.417969 229.03125 C 793.605469 228.980469 792.84375 228.953125 792.125 228.953125 L 739.277344 228.953125 L 739.277344 192.96875 L 784.53125 192.96875 C 784.960938 192.96875 785.410156 192.890625 785.914062 192.71875 C 786.433594 192.558594 786.890625 192.277344 787.324219 191.894531 C 787.75 191.515625 788.113281 191.023438 788.394531 190.425781 C 788.683594 189.828125 788.835938 189.074219 788.835938 188.171875 C 788.835938 186.636719 788.460938 185.441406 787.722656 184.589844 C 786.96875 183.722656 786.132812 183.269531 785.167969 183.226562 C 785.03125 183.226562 784.71875 183.210938 784.238281 183.179688 C 783.757812 183.164062 782.953125 183.152344 781.796875 183.152344 L 732.375 183.152344 C 731.949219 183.152344 731.480469 183.230469 730.984375 183.402344 C 730.476562 183.570312 730.015625 183.835938 729.589844 184.222656 C 729.160156 184.605469 728.804688 185.089844 728.5 185.695312 C 728.230469 186.292969 728.074219 187.039062 728.074219 187.949219 L 728.074219 235.265625 C 728.074219 236.222656 728.402344 236.914062 729.042969 237.34375 C 729.703125 237.769531 730.496094 238.058594 731.445312 238.203125 C 732.496094 238.585938 733.71875 238.777344 735.105469 238.777344 L 792.304688 238.777344 C 793.097656 238.777344 793.785156 238.769531 794.386719 238.746094 C 794.992188 238.71875 795.40625 238.703125 795.644531 238.703125 C 796.597656 238.65625 797.410156 238.164062 798.074219 237.234375 C 798.742188 236.300781 799.089844 235.144531 799.089844 233.757812 C 799.089844 232.519531 798.851562 231.566406 798.410156 230.925781 C 797.953125 230.273438 797.375 229.816406 796.6875 229.53125 "/>
<path fill-rule="nonzero" fill="rgb(50.695801%, 73.751831%, 19.781494%)" fill-opacity="1" d="M 431.617188 184.261719 C 430.484375 183.832031 429.234375 183.621094 427.847656 183.621094 C 427.65625 183.621094 427.46875 183.644531 427.285156 183.648438 L 406.941406 183.648438 C 405.699219 183.648438 404.753906 184.085938 404.113281 184.980469 C 403.464844 185.859375 403.144531 187.066406 403.144531 188.59375 C 403.144531 190.175781 403.46875 191.378906 404.144531 192.210938 C 404.816406 193.046875 405.769531 193.472656 407.011719 193.472656 L 422.320312 193.472656 L 422.320312 223.078125 C 422.320312 223.839844 421.648438 224.617188 420.328125 225.40625 C 418.980469 226.191406 417.117188 226.914062 414.726562 227.558594 C 412.339844 228.203125 409.484375 228.730469 406.195312 229.136719 C 402.894531 229.539062 399.277344 229.75 395.359375 229.75 L 394.496094 229.75 C 389.714844 229.75 385.617188 229.292969 382.203125 228.386719 C 378.773438 227.472656 375.898438 226.183594 373.554688 224.519531 C 371.210938 222.847656 369.332031 220.835938 367.929688 218.5 C 366.515625 216.160156 365.4375 213.519531 364.691406 210.585938 C 363.953125 207.652344 363.46875 204.472656 363.226562 201.058594 C 362.992188 197.644531 362.871094 194.058594 362.871094 190.277344 L 362.871094 186.914062 C 362.871094 183.144531 362.992188 179.554688 363.226562 176.136719 C 363.46875 172.722656 363.953125 169.550781 364.691406 166.605469 C 365.4375 163.675781 366.515625 161.027344 367.929688 158.667969 C 369.332031 156.300781 371.210938 154.28125 373.554688 152.613281 C 375.898438 150.9375 378.773438 149.644531 382.203125 148.746094 C 385.617188 147.832031 389.714844 147.382812 394.496094 147.382812 L 396.941406 147.382812 C 400.378906 147.382812 403.371094 147.609375 405.902344 148.058594 C 408.433594 148.511719 410.636719 149.089844 412.496094 149.765625 C 414.367188 150.453125 415.929688 151.1875 417.203125 151.96875 C 418.460938 152.753906 419.566406 153.488281 420.503906 154.171875 C 421.4375 154.867188 422.234375 155.429688 422.910156 155.886719 C 423.566406 156.332031 424.242188 156.558594 424.902344 156.558594 C 426.148438 156.558594 427.222656 156.117188 428.128906 155.230469 C 429.046875 154.347656 429.5 153.28125 429.5 152.039062 C 429.5 150.375 428.746094 148.671875 427.234375 146.953125 C 425.734375 145.230469 423.621094 143.667969 420.894531 142.257812 C 418.167969 140.851562 414.886719 139.695312 411.0625 138.8125 C 407.246094 137.929688 403.011719 137.488281 398.367188 137.488281 L 395.210938 137.488281 C 388.613281 137.488281 382.949219 138.117188 378.214844 139.347656 C 373.480469 140.597656 369.5 142.355469 366.277344 144.625 C 363.046875 146.898438 360.476562 149.605469 358.5625 152.734375 C 356.660156 155.859375 355.183594 159.320312 354.148438 163.097656 C 353.121094 166.878906 352.464844 170.898438 352.152344 175.152344 C 351.828125 179.40625 351.683594 183.808594 351.683594 188.351562 L 351.683594 188.851562 C 351.683594 193.394531 351.828125 197.789062 352.152344 202.042969 C 352.464844 206.300781 353.121094 210.3125 354.148438 214.097656 C 355.183594 217.875 356.660156 221.335938 358.5625 224.464844 C 360.476562 227.59375 363.046875 230.285156 366.277344 232.539062 C 369.5 234.785156 373.480469 236.527344 378.214844 237.769531 C 382.949219 239.019531 388.613281 239.632812 395.210938 239.632812 L 395.574219 239.632812 C 397.777344 239.730469 400.21875 239.679688 402.929688 239.492188 C 405.628906 239.296875 408.378906 238.972656 411.179688 238.515625 C 413.96875 238.058594 416.699219 237.457031 419.347656 236.707031 C 422.007812 235.960938 424.363281 235.089844 426.40625 234.074219 C 428.46875 233.070312 430.140625 231.910156 431.398438 230.617188 C 432.660156 229.3125 433.292969 227.882812 433.292969 226.304688 L 433.292969 186.84375 C 433.292969 185.550781 432.738281 184.691406 431.617188 184.261719 "/>
<path fill-rule="nonzero" fill="rgb(50.695801%, 73.751831%, 19.781494%)" fill-opacity="1" d="M 321.042969 183.671875 C 321.042969 183.671875 270.789062 183.722656 270.359375 183.722656 L 270.359375 141.792969 C 270.359375 140.976562 270.179688 140.296875 269.820312 139.75 C 269.457031 139.195312 268.976562 138.765625 268.378906 138.460938 C 267.789062 138.144531 267.101562 137.921875 266.335938 137.777344 C 265.574219 137.632812 264.789062 137.566406 263.96875 137.566406 C 262.296875 137.566406 261.070312 137.894531 260.308594 138.558594 C 259.550781 139.234375 259.160156 140.191406 259.160156 141.4375 L 259.160156 236.480469 C 259.160156 237.722656 259.589844 238.550781 260.449219 238.953125 C 261.3125 239.359375 262.480469 239.566406 263.96875 239.566406 C 264.683594 239.566406 265.417969 239.519531 266.15625 239.417969 C 266.894531 239.324219 267.574219 239.144531 268.207031 238.886719 C 268.828125 238.625 269.332031 238.273438 269.75 237.847656 C 270.148438 237.414062 270.359375 236.867188 270.359375 236.195312 L 270.359375 193.546875 L 321.113281 193.5 C 322.355469 193.5 323.3125 193.054688 323.945312 192.175781 C 324.601562 191.292969 324.921875 190.082031 324.921875 188.550781 C 324.921875 186.972656 324.585938 185.765625 323.917969 184.929688 C 323.242188 184.097656 322.285156 183.671875 321.042969 183.671875 "/>
<path fill-rule="nonzero" fill="rgb(50.695801%, 73.751831%, 19.781494%)" fill-opacity="1" d="M 335.835938 137.566406 C 334.976562 137.566406 334.167969 137.660156 333.394531 137.847656 C 332.636719 138.039062 331.953125 138.3125 331.351562 138.675781 C 330.753906 139.027344 330.273438 139.472656 329.925781 139.996094 C 329.5625 140.523438 329.382812 141.097656 329.382812 141.71875 L 329.382812 236.195312 C 329.382812 236.867188 329.582031 237.414062 329.988281 237.847656 C 330.394531 238.273438 330.914062 238.609375 331.535156 238.84375 C 332.152344 239.082031 332.84375 239.261719 333.617188 239.382812 C 334.375 239.503906 335.113281 239.566406 335.835938 239.566406 C 337.230469 239.566406 338.359375 239.371094 339.242188 238.988281 C 340.128906 238.609375 340.574219 237.769531 340.574219 236.480469 L 340.574219 141.570312 C 340.574219 139.957031 340.199219 138.878906 339.460938 138.351562 C 338.726562 137.820312 337.507812 137.566406 335.835938 137.566406 "/>
<path fill-rule="nonzero" fill="rgb(12.745667%, 36.39679%, 47.761536%)" fill-opacity="1" d="M 138.246094 63.152344 C 148.132812 63.152344 156.164062 71.183594 156.164062 81.058594 C 156.164062 90.933594 148.132812 98.96875 138.246094 98.96875 C 128.363281 98.96875 120.332031 90.933594 120.332031 81.058594 C 120.332031 71.183594 128.363281 63.152344 138.246094 63.152344 M 138.246094 109.980469 C 154.207031 109.980469 167.191406 97.007812 167.191406 81.058594 C 167.191406 65.113281 154.207031 52.136719 138.246094 52.136719 C 122.289062 52.136719 109.3125 65.113281 109.3125 81.058594 C 109.3125 97.007812 122.289062 109.980469 138.246094 109.980469 "/>
<path fill-rule="nonzero" fill="rgb(12.745667%, 36.39679%, 47.761536%)" fill-opacity="1" d="M 83.378906 92.859375 C 91.105469 92.859375 97.394531 99.144531 97.394531 106.859375 C 97.394531 114.589844 91.105469 120.875 83.378906 120.875 C 75.652344 120.875 69.363281 114.589844 69.363281 106.859375 C 69.363281 99.144531 75.652344 92.859375 83.378906 92.859375 M 83.378906 131.886719 C 97.179688 131.886719 108.414062 120.664062 108.414062 106.859375 C 108.414062 93.070312 97.179688 81.84375 83.378906 81.84375 C 69.578125 81.84375 58.347656 93.070312 58.347656 106.859375 C 58.347656 120.664062 69.578125 131.886719 83.378906 131.886719 "/>
<path fill-rule="nonzero" fill="rgb(12.745667%, 36.39679%, 47.761536%)" fill-opacity="1" d="M 111.949219 161.148438 C 114.847656 158.25 119.550781 158.25 122.445312 161.148438 C 123.898438 162.597656 124.617188 164.492188 124.625 166.390625 C 124.617188 168.292969 123.898438 170.183594 122.445312 171.636719 L 115.90625 178.175781 L 108.378906 185.699219 L 100.871094 178.199219 L 94.308594 171.636719 C 91.40625 168.738281 91.40625 164.042969 94.308594 161.148438 C 95.757812 159.699219 97.65625 158.972656 99.554688 158.972656 C 101.453125 158.972656 103.347656 159.699219 104.804688 161.148438 L 108.378906 164.71875 Z M 135.492188 115.578125 C 120.121094 115.578125 106.945312 125.066406 101.464844 138.484375 C 97.523438 137.34375 93.382812 136.695312 89.070312 136.695312 C 64.5 136.695312 44.511719 156.675781 44.511719 181.230469 L 44.511719 232.417969 C 44.511719 235.457031 46.980469 237.929688 50.027344 237.929688 L 128.125 237.929688 C 131.164062 237.929688 133.636719 235.457031 133.636719 232.417969 C 133.636719 229.382812 131.164062 226.917969 128.125 226.917969 L 55.535156 226.917969 L 55.535156 181.230469 C 55.535156 162.746094 70.582031 147.714844 89.070312 147.714844 C 92.066406 147.714844 94.972656 148.113281 97.742188 148.851562 C 93.710938 149.265625 89.984375 151.023438 87.082031 153.921875 C 80.203125 160.800781 80.203125 171.984375 87.078125 178.859375 L 93.644531 185.417969 L 101.152344 192.921875 L 108.378906 200.144531 L 115.605469 192.921875 L 123.128906 185.398438 L 129.671875 178.859375 C 133 175.535156 134.835938 171.113281 134.84375 166.402344 C 134.835938 161.667969 133 157.246094 129.667969 153.921875 C 126.929688 151.183594 123.441406 149.476562 119.664062 148.953125 C 117.214844 146.636719 114.511719 144.582031 111.589844 142.859375 C 115.371094 133.351562 124.640625 126.597656 135.492188 126.597656 C 149.675781 126.597656 161.21875 138.132812 161.21875 152.3125 L 161.21875 209.222656 L 104.679688 209.222656 C 101.640625 209.222656 99.175781 211.691406 99.175781 214.730469 C 99.175781 217.777344 101.640625 220.234375 104.679688 220.234375 L 166.726562 220.234375 C 169.769531 220.234375 172.238281 217.777344 172.238281 214.730469 L 172.238281 152.3125 C 172.238281 132.058594 155.761719 115.578125 135.492188 115.578125 "/>
</svg>
