<?xml version="1.0" encoding="utf-8"?>
<!-- Generator: Adobe Illustrator 27.0.0, SVG Export Plug-In . SVG Version: 6.00 Build 0)  -->
<svg version="1.1" id="Layer_1" xmlns="http://www.w3.org/2000/svg" xmlns:xlink="http://www.w3.org/1999/xlink" x="0px" y="0px"
	 viewBox="0 0 841.9 595.3" style="enable-background:new 0 0 841.9 595.3;" xml:space="preserve">
<style type="text/css">
	.st0{fill:#009CCF;}
	.st1{fill:#FFDA19;}
	.st2{fill:#279F00;}
	.st3{fill:#FF5C39;}
	.st4{fill:#FA4616;}
	.st5{fill:#257226;}
	.st6{fill:#025F1D;}
	.st7{fill:#FFFFFF;}
</style>
<path class="st0" d="M411.5,198.4c-39.4,0-71.4,32-71.4,71.4s32,71.4,71.4,71.4c13.5,0,26.1-3.7,36.9-10.2c-3.9-4.7-5.8-11-4.7-17.6
	c0.7-4.2,2.6-7.9,5.2-10.8c-3.8-6-6-13.2-6-20.9c0-20.1,15.2-36.7,34.8-38.9C467,216.8,441.4,198.4,411.5,198.4"/>
<path class="st1" d="M481.9,242.5c-1.5,0-2.9,0.1-4.3,0.2c3.4,8.3,5.3,17.5,5.3,27c0,10.3-2.2,20.1-6.1,28.9
	c7.1,4.5,11.2,13,9.7,21.8c19.4-2.3,34.5-18.8,34.5-38.8C521,260.1,503.5,242.5,481.9,242.5"/>
<path class="st2" d="M477.6,242.8c-19.6,2.1-34.8,18.7-34.8,38.9c0,7.7,2.2,14.8,6,20.9c4-4.5,9.9-7.3,16.2-7.3
	c1.2,0,2.4,0.1,3.7,0.3c3,0.5,5.7,1.6,8.1,3.1c3.9-8.8,6.1-18.6,6.1-28.9C482.9,260.2,481,251.1,477.6,242.8"/>
<path class="st3" d="M465.1,317c-4.8,5.5-10.4,10.2-16.7,14c3.2,3.8,7.7,6.6,13.1,7.5c1.2,0.2,2.4,0.3,3.7,0.3
	c10.4,0,19.6-7.5,21.4-18.1c0,0,0-0.1,0-0.1c-1.5,0.2-3.1,0.3-4.6,0.3C475.9,320.8,470.2,319.4,465.1,317"/>
<path class="st4" d="M476.8,298.7c-3,6.7-6.9,12.9-11.7,18.3c5.1,2.4,10.8,3.8,16.8,3.8c1.6,0,3.1-0.1,4.6-0.3
	C488,311.7,483.9,303.2,476.8,298.7"/>
<path class="st5" d="M448.8,302.5c-2.6,2.9-4.5,6.6-5.2,10.8c-1.1,6.5,0.8,12.9,4.7,17.6c6.3-3.8,11.9-8.5,16.7-14
	C458.4,313.8,452.8,308.8,448.8,302.5"/>
<path class="st6" d="M465.1,295.3c-6.3,0-12.2,2.8-16.2,7.3c3.9,6.2,9.6,11.2,16.2,14.4c4.8-5.4,8.8-11.6,11.7-18.3
	c-2.4-1.5-5.1-2.6-8.1-3.1C467.5,295.4,466.3,295.3,465.1,295.3"/>
<g>
	<path class="st7" d="M372.8,300.7v2.5h-6.5v3h6.2v2.4h-6.2v3.2h6.6v2.5h-9.3v-13.5H372.8z"/>
	<path class="st7" d="M375.5,300.6l6.1,7.8l6.1-7.8h0.7v13.6h-2.7v-7.3l-4.1,5.4l-4.1-5.4v7.3h-2.7v-13.6H375.5z"/>
	<path class="st7" d="M400.8,305.4c0,2.5-1.7,4.9-5.2,4.9h-2.4v3.9h-2.7v-13.5h5.3C399,300.7,400.8,302.7,400.8,305.4z M398.1,305.4
		c0-1.4-0.9-2.3-2.4-2.3h-2.4v4.8h2.4C397.2,308,398.1,306.9,398.1,305.4z"/>
	<path class="st7" d="M405.1,300.7v11h5.7v2.5h-8.4v-13.5H405.1z"/>
	<path class="st7" d="M411.3,307.5c0-3.7,2.7-6.9,7-6.9s7,3.2,7,6.9c0,3.7-2.7,6.9-7,6.9S411.3,311.2,411.3,307.5z M422.5,307.5
		c0-2.3-1.5-4.3-4.2-4.3s-4.2,1.9-4.2,4.3c0,2.3,1.5,4.3,4.2,4.3S422.5,309.8,422.5,307.5z"/>
	<path class="st7" d="M427.9,300.7l3.2,5.5l3.2-5.5h3l-4.9,8v5.5h-2.7v-5.5l-4.9-8H427.9z"/>
	<path class="st7" d="M447.8,300.7v2.5h-6.5v3h6.2v2.4h-6.2v3.2h6.6v2.5h-9.3v-13.5H447.8z"/>
	<path class="st7" d="M460.5,305.1c0,1.6-0.9,3.5-2.9,4.3l3.3,4.9h-3.1l-2.8-4.5h-2.6v4.5h-2.7v-13.5h5.8
		C458.6,300.7,460.5,302.5,460.5,305.1z M452.4,307.5h2.9c1.6,0,2.4-1,2.4-2.3c0-1.2-0.8-2-2.4-2h-2.9V307.5z"/>
</g>
<g>
	<polygon class="st7" points="366.3,294.1 355.8,268.4 364.7,268.4 369.1,281 373.9,268.2 378.7,268.2 383.6,281 388,268.4 
		396.8,268.4 386.3,294.1 381.4,294.1 376.3,280.3 371.1,294.1 	"/>
	<path class="st7" d="M406.7,268.1L418,294h-8.2l-1.1-2.8H400l-1.1,2.8h-8.2l11.4-25.9H406.7z M406.5,285.1l-2.1-5.4l-2.1,5.4H406.5
		z"/>
	<polygon class="st7" points="463,268.4 463,275 452.4,275 452.4,277.9 462.6,277.9 462.6,284.1 452.4,284.1 452.4,287.3 
		463.2,287.3 463.2,294 444.8,294 444.8,268.4 	"/>
	<path class="st7" d="M434.1,280L434.1,280l-2.9,0v3.3h2.9v3.1c-0.6,0.4-1.9,0.9-3.5,0.9c-3.9,0-6-2.6-6-6.2c0-3.6,2.3-6,5.8-6
		c1.5,0,3.1,0.5,4.9,2.1l5.3-5.4c-2.6-2.5-6.3-3.8-10.1-3.8c-8.5,0-14,6-14,13.2c0,7.3,5.5,13.2,13.9,13.2c5.2,0,9.2-2,11.3-4.1V280
		H434.1z"/>
</g>
<g>
	<polygon class="st7" points="360.7,237.4 360.7,256.2 369.6,256.2 369.6,263.1 353.1,263.1 353.1,237.4 	"/>
	<rect x="372.3" y="237.4" class="st7" width="7.8" height="25.6"/>
	<polygon class="st7" points="395.1,263 381.4,237.4 390.4,237.4 395.1,248.1 399.9,237.4 408.7,237.4 	"/>
	<rect x="410" y="237.4" class="st7" width="7.8" height="25.6"/>
	<polygon class="st7" points="423.9,237.3 436.6,249.2 436.6,237.4 444.2,237.4 444.2,263.2 441,263.2 428.6,251 428.6,263.1 
		421,263.1 421,237.3 	"/>
	<path class="st7" d="M467.1,249L467.1,249l-5.6,0v3.3h2.4v3.1c-0.6,0.4-1.9,0.9-3.5,0.9c-3.9,0-6-2.6-6-6.2c0-3.6,2.3-6,5.8-6
		c1.5,0,3.1,0.5,4.9,2.1l5.3-5.4c-2.6-2.5-6.3-3.8-10.1-3.8c-8.5,0-14,6-14,13.2c0,7.3,5.5,13.2,13.9,13.2c5.2,0,9.2-2,11.3-4.1V249
		H467.1z"/>
</g>
</svg>
